<svg width="57" height="64" viewBox="0 0 57 64" fill="none" xmlns="http://www.w3.org/2000/svg">
<path d="M56.316 39.444L49.476 32.604C48.564 31.692 47.196 31.692 46.284 32.604L25.08 53.808V63.84H35.112L56.316 42.636C57.228 41.724 57.228 40.356 56.316 39.444ZM33.288 59.28H29.64V55.632L41.04 44.232L44.688 47.88L33.288 59.28ZM47.88 44.688L44.232 41.04L47.88 37.392L51.528 41.04L47.88 44.688ZM11.4 47.88H15.96V52.44H11.4V47.88ZM20.52 36.48H29.64V41.04H20.52V36.48ZM11.4 36.48H15.96V41.04H11.4V36.48ZM20.52 25.08H38.76V29.64H20.52V25.08ZM11.4 25.08H15.96V29.64H11.4V25.08Z" fill="#0D1C27"/>
<path d="M4.56 59.28V11.4H11.4V18.24H38.76V11.4H45.6V25.08H50.16V11.4C50.16 8.892 48.108 6.84 45.6 6.84H38.76V4.56C38.76 2.052 36.708 0 34.2 0H15.96C13.452 0 11.4 2.052 11.4 4.56V6.84H4.56C2.052 6.84 0 8.892 0 11.4V59.28C0 61.788 2.052 63.84 4.56 63.84H15.96V59.28H4.56ZM15.96 4.56H34.2V13.68H15.96V4.56Z" fill="black"/>
</svg>
