<svg width="289" height="288" viewBox="0 0 289 288" fill="none" xmlns="http://www.w3.org/2000/svg">
<path d="M106.671 4.26691C109.357 2.58836 108.423 9.36176 108.416 10.0834C108.27 26.1944 105.602 41.9694 103.375 57.876C99.8701 82.9135 101.437 108.743 101.437 133.976C101.437 149.81 101.437 165.644 101.437 181.477C101.437 184.222 101.502 192.984 99.6916 185.743" stroke="#1E1E1E" stroke-width="8" stroke-linecap="round" stroke-linejoin="round"/>
<path d="M108.417 7.75703C121.071 5.16132 134.152 6.01207 147 6.01207C163.65 6.01207 180.381 5.53518 197.022 6.10901C215.066 6.73122 232.506 11.247 250.728 11.247C257.094 11.247 263.46 11.247 269.826 11.247C271.116 11.247 273.774 10.6645 274.091 12.4103C275.661 21.0425 275.84 30.614 275.933 39.3602C276.47 89.8865 275.933 140.448 275.933 190.978C275.933 193.51 277.265 200.703 275.545 202.805C274.406 204.197 267.88 203.193 266.433 203.193C261.198 203.193 255.963 203.193 250.728 203.193C244.126 203.193 237.91 204.841 231.34 204.938C217.258 205.145 203.156 204.938 189.073 204.938C176.91 204.938 164.845 206.683 152.622 206.683C133.519 206.683 114.326 207.228 95.2325 206.683C89.2215 206.511 94.457 190.621 94.457 186.713C94.457 182.318 94.457 177.923 94.457 173.528" stroke="#1E1E1E" stroke-width="8" stroke-linecap="round" stroke-linejoin="round"/>
<path d="M183.45 88.0248C183.45 111.614 183.45 135.203 183.45 158.793C183.45 180.72 181.705 202.443 181.705 224.326C181.705 231.209 181.705 238.091 181.705 244.974C181.705 250.336 180.104 255.443 179.96 260.776C179.85 264.849 180.195 268.811 179.087 272.797C178.197 276.001 178.995 279.423 178.118 282.491C177.277 285.434 160.674 283.185 159.02 283.073C147.694 282.306 136.827 279.649 125.963 276.481C117.028 273.875 107.988 271.063 98.7223 269.889C87.5636 268.474 76.8779 266.119 65.7619 264.266C46.4165 261.042 26.757 260.776 7.20879 260.776C3.0915 260.776 3.78501 259.121 4.68829 255.25C7.32413 243.954 11.8488 233.118 12.3467 221.417C13.6456 190.894 18.0659 160.643 19.5205 130.098C19.9295 121.508 21.1685 113.284 21.1685 104.602C21.1685 99.9385 20.1656 92.332 23.3012 88.4126C25.7624 85.3361 29.7384 86.2798 33.3832 86.2798C50.4434 86.2798 67.3595 86.2315 84.3749 84.9226C94.4099 84.1507 104.23 81.7482 114.233 81.1419C120.833 80.7419 127.261 81.3025 133.815 80.1725C145.128 78.2221 157.164 79.3 168.618 79.3C172.409 79.3 175.142 81.2898 178.603 82.4021C182.007 83.4963 183.45 82.1006 183.45 86.2798" stroke="#1E1E1E" stroke-width="8" stroke-linecap="round" stroke-linejoin="round"/>
<path d="M26.4033 86.2801C38.4821 79.5696 48.8962 69.022 58.5881 59.3301C66.1173 51.801 74.2998 45.1877 81.8543 37.8089C88.7586 31.0653 95.9725 24.7316 103.182 18.3235C106.996 14.9331 115.396 13.4317 115.396 7.75683" stroke="#1E1E1E" stroke-width="8" stroke-linecap="round" stroke-linejoin="round"/>
<path d="M181.705 96.7501C182.305 98.549 192.163 89.6155 193.241 88.6069C201.062 81.2905 208.117 73.1357 216.217 66.1163C224.597 58.8532 234.987 56.282 243.748 50.0239C251.46 44.5152 259.595 40.5756 265.851 33.1559C269.927 28.322 273.983 23.6673 278.454 19.1962C280.526 17.124 282.004 15.7181 282.913 12.9919" stroke="#1E1E1E" stroke-width="8" stroke-linecap="round" stroke-linejoin="round"/>
<path d="M174.725 281.716C188.422 266.965 201.389 251.562 215.635 237.316C218.638 234.313 223.526 226.956 227.947 225.974C231.109 225.271 232.191 225.328 235.12 223.162C238.633 220.566 242.766 219.279 246.269 216.764C251.467 213.032 256.126 208.737 261.586 205.325C268.944 200.726 276.189 193.095 284.658 190.978" stroke="#1E1E1E" stroke-width="8" stroke-linecap="round" stroke-linejoin="round"/>
<path d="M8.95361 260.776C27.3665 242.363 45.3061 223.984 65.9557 208.04C74.4151 201.508 83.6365 194.391 92.7118 188.845C96.5798 186.481 98.5379 185.743 103.182 185.743" stroke="#1E1E1E" stroke-width="8" stroke-linecap="round" stroke-linejoin="round"/>
</svg>
