<svg width="35" height="35" viewBox="0 0 35 35" fill="none" xmlns="http://www.w3.org/2000/svg">
<g clip-path="url(#clip0_67_717)">
<path fill-rule="evenodd" clip-rule="evenodd" d="M29.3577 4.60833C28.5372 3.78815 27.4247 3.32739 26.2646 3.32739C25.1045 3.32739 23.9919 3.78815 23.1714 4.60833L22.1404 5.64083L29.3591 12.8596L30.3887 11.8285C30.7951 11.4223 31.1174 10.9399 31.3373 10.4091C31.5572 9.87825 31.6704 9.30928 31.6704 8.73469C31.6704 8.16009 31.5572 7.59112 31.3373 7.06028C31.1174 6.52943 30.7951 6.0471 30.3887 5.64083L29.3577 4.60833ZM27.2956 14.9217L20.0769 7.70292L6.8206 20.9606C6.53051 21.2508 6.32787 21.6166 6.23581 22.0165L4.73518 28.5133C4.67927 28.7545 4.68568 29.006 4.75382 29.244C4.82196 29.482 4.94957 29.6988 5.12465 29.8739C5.29972 30.0489 5.51648 30.1766 5.75451 30.2447C5.99254 30.3128 6.24399 30.3192 6.48518 30.2633L12.9835 28.7642C13.3828 28.6719 13.7482 28.4692 14.0379 28.1794L27.2956 14.9217Z" fill="black"/>
</g>
<defs>
<clipPath id="clip0_67_717">
<rect width="35" height="35" fill="white"/>
</clipPath>
</defs>
</svg>
