<svg width="36" height="36" viewBox="0 0 36 36" fill="none" xmlns="http://www.w3.org/2000/svg">
<path d="M18 36C14.692 36 12 33.308 12 30L12.106 23.894L6.036 24C2.692 24 0 21.308 0 18C0 14.692 2.692 12 6 12L12.106 11.892L12 6.036C12 2.692 14.692 0 18 0C21.308 0 24 2.692 24 6L24.11 11.892L30.036 12C33.308 12 36 14.692 36 18C36 21.308 33.308 24 30 24L24.11 23.894L24 30.036C24 33.308 21.308 36 18 36ZM16 20V30.036C16 31.102 16.898 32 18 32C19.102 32 20 31.102 20 30V20H30.036C31.102 20 32 19.102 32 18C32 16.898 31.102 16 30 16H20V6C20 4.862 19.102 4 18 4C16.898 4 16 4.898 16 6V16H6C4.862 16 4 16.898 4 18C4 19.102 4.898 20 6 20H16Z" fill="black"/>
</svg>
