<svg width="61" height="45" viewBox="0 0 61 45" fill="none" xmlns="http://www.w3.org/2000/svg">
<path d="M0 5C0 2.23858 2.23858 0 5 0H56C58.7614 0 61 2.23858 61 5V40C61 42.7614 58.7614 45 56 45H5C2.23858 45 0 42.7614 0 40V5Z" fill="white"/>
<path d="M35.6807 14.12H28.6607V18.68C28.9674 18.2533 29.4207 17.9067 30.0207 17.64C30.6207 17.36 31.2674 17.22 31.9607 17.22C33.0674 17.22 33.9674 17.4533 34.6607 17.92C35.354 18.3733 35.8474 18.9667 36.1407 19.7C36.4474 20.42 36.6007 21.1867 36.6007 22C36.6007 22.96 36.4207 23.82 36.0607 24.58C35.7007 25.34 35.1474 25.94 34.4007 26.38C33.6674 26.82 32.754 27.04 31.6607 27.04C30.2607 27.04 29.1274 26.68 28.2607 25.96C27.394 25.24 26.8674 24.28 26.6807 23.08H28.4607C28.634 23.84 29.0007 24.4333 29.5607 24.86C30.1207 25.2867 30.8274 25.5 31.6807 25.5C32.734 25.5 33.5274 25.1867 34.0607 24.56C34.594 23.92 34.8607 23.08 34.8607 22.04C34.8607 21 34.594 20.2 34.0607 19.64C33.5274 19.0667 32.7407 18.78 31.7007 18.78C30.994 18.78 30.374 18.9533 29.8407 19.3C29.3207 19.6333 28.9407 20.0933 28.7007 20.68H26.9807V12.52H35.6807V14.12Z" fill="black"/>
</svg>
