<svg width="255" height="312" viewBox="0 0 255 312" fill="none" xmlns="http://www.w3.org/2000/svg">
<path d="M52.8248 54.9328C44.3735 59.1578 37.7761 63.4074 33.8325 72.4764C30.8092 79.429 29.2074 86.4218 28.6265 93.9722C27.364 110.382 26.7947 126.966 26.7947 143.422C26.7947 157.223 27.2082 171.013 29.3013 184.678C31.6342 199.908 34.3593 216.519 40.4847 230.755C54.5465 263.434 78.0828 298.209 114.719 306.809C174.457 320.832 238.096 278.329 249.497 218.802C252.727 201.934 253.32 183.607 251.425 166.556C248.627 141.384 238.883 116.797 227.998 94.0686C220.62 78.6645 210.224 65.2257 200.522 51.2698C190.336 36.6197 177.666 25.6998 163.308 15.3151C150.843 6.29895 131.139 -1.35539 115.683 4.61538C104.808 8.81651 94.2104 14.3677 84.1574 20.2311C73.0178 26.7282 61.6735 33.0065 52.15 41.8233C37.8737 55.0401 26.2868 70.9801 16.7683 87.8994C9.54508 100.739 2.49999 116.228 2.49999 131.276" stroke="#1E1E1E" stroke-width="5" stroke-linecap="round" stroke-linejoin="round"/>
<path d="M116.5 34.4999C114.912 39.8166 115.691 48.4586 115.691 54.4998" stroke="#1E1E1E" stroke-width="5" stroke-linecap="round" stroke-linejoin="round"/>
<path d="M120.5 32.7463C122.238 32.5967 134.797 28.7962 135.094 29.6154C135.882 31.7833 130.641 36.2893 129.787 37.6382C126.13 43.4122 136.671 38.7897 138.317 38.0295C142.158 36.2553 146.068 36.8687 149.5 34.5073" stroke="#1E1E1E" stroke-width="5" stroke-linecap="round" stroke-linejoin="round"/>
<path d="M187.499 57.4998V78.4998" stroke="#1E1E1E" stroke-width="5" stroke-linecap="round" stroke-linejoin="round"/>
<path d="M205.744 115.538C207.782 115.538 210.276 113.139 210.677 115.634C211.263 119.279 208.754 123.199 207.419 126.342C205.517 130.821 203.539 135.27 201.648 139.75C200.498 142.474 194.506 148.448 197.179 147.371C205.689 143.942 213.345 139.296 222.499 138.111" stroke="#1E1E1E" stroke-width="5" stroke-linecap="round" stroke-linejoin="round"/>
<path d="M209.499 162.934C213.246 162.934 224.845 160.695 225.164 166.379C225.414 170.832 222.552 172.553 224.777 176.712C225.911 178.831 229.095 184.112 226.518 186.662C224.875 188.288 217.022 187.045 214.721 187.045" stroke="#1E1E1E" stroke-width="5" stroke-linecap="round" stroke-linejoin="round"/>
<path d="M203.985 209.499C203.38 215.913 199.218 222.66 197.551 228.979C196.564 232.721 209.995 231.189 212.499 231.189" stroke="#1E1E1E" stroke-width="5" stroke-linecap="round" stroke-linejoin="round"/>
<path d="M207.499 229.499V241.499" stroke="#1E1E1E" stroke-width="5" stroke-linecap="round" stroke-linejoin="round"/>
<path d="M191.586 244.923C189.292 244.923 183.098 243.744 181.358 245.319C178.282 248.101 184.375 248.482 185.489 248.482C195.22 248.482 193.356 257.349 193.356 264.499" stroke="#1E1E1E" stroke-width="5" stroke-linecap="round" stroke-linejoin="round"/>
<path d="M138.255 251.499C138.255 264.008 132.742 292.623 151.508 291.465C154.576 291.276 153.716 281.879 151.508 280.653C147.295 278.314 143 277.564 138.255 277.564" stroke="#1E1E1E" stroke-width="5" stroke-linecap="round" stroke-linejoin="round"/>
<path d="M53.4998 175.499C48.7819 175.499 41.8725 178.501 40.7511 183.214C39.0581 190.328 46.3885 186.119 48.8083 183.214C48.9446 183.05 51.461 179.5 51.664 179.69C52.3336 180.315 51.664 184.812 51.664 185.785C51.664 190.357 51.664 194.928 51.664 199.499" stroke="#1E1E1E" stroke-width="5" stroke-linecap="round" stroke-linejoin="round"/>
<path d="M80.4997 254.499C83.6226 256.864 91.4997 253.991 91.4997 258.681C91.4997 263.287 91.4997 267.893 91.4997 272.499" stroke="#1E1E1E" stroke-width="5" stroke-linecap="round" stroke-linejoin="round"/>
<path d="M73.4998 223.925C69.1271 223.925 61.2678 219.659 57.1917 222.442C55.3284 223.715 56.0166 228.947 56.1302 231.042C56.3141 234.432 59.4368 234.601 62.1131 234.601C67.5823 234.601 66.552 237.213 66.552 242.113C66.552 245.214 65.5597 252.14 61.3411 252.394C57.2161 252.643 53.8188 252.859 52.7528 247.946C51.7309 243.235 53.8208 239.939 58.7357 239.939C62.0032 239.939 64.0902 236.568 66.166 234.205C69.0436 230.93 68.2889 226.176 68.2889 222.146" stroke="#1E1E1E" stroke-width="5" stroke-linecap="round" stroke-linejoin="round"/>
<path d="M197.159 248.295C193.876 248.295 191.488 246.507 188.168 246.507C182.708 246.507 181.664 246.062 181.664 251.97C181.664 254.1 180.301 262.411 183.386 262.599C186.969 262.818 189.513 260.811 192.855 260.811C196.758 260.811 197.159 261.228 197.159 265.281C197.159 267.333 198.137 273.148 196.777 274.718C192.876 279.219 181.691 276.903 176.499 276.903" stroke="#1E1E1E" stroke-width="5" stroke-linecap="round" stroke-linejoin="round"/>
<path d="M37.4999 142.5V162.499" stroke="#1E1E1E" stroke-width="5" stroke-linecap="round" stroke-linejoin="round"/>
<path d="M49.4809 151.369C49.4809 148.706 49.4809 146.043 49.4809 143.38C49.4809 141.933 51.6999 135.746 52.8745 139.928C54.2225 144.728 52.9715 151.692 52.9715 156.695C52.9715 163.101 45.4196 160.433 44.1482 155.906C43.4775 153.519 42.4999 152.631 42.4999 149.594C42.4999 145.528 44.2169 146.043 47.7357 146.043" stroke="#1E1E1E" stroke-width="5" stroke-linecap="round" stroke-linejoin="round"/>
<path d="M44.4999 97.4997V113.5" stroke="#1E1E1E" stroke-width="5" stroke-linecap="round" stroke-linejoin="round"/>
<path d="M55.4998 95.4997V114.5" stroke="#1E1E1E" stroke-width="5" stroke-linecap="round" stroke-linejoin="round"/>
<path d="M134.5 172.499H134.5" stroke="#1E1E1E" stroke-width="5" stroke-linecap="round" stroke-linejoin="round"/>
<path d="M134.5 172.499H134.5" stroke="#1E1E1E" stroke-width="5" stroke-linecap="round" stroke-linejoin="round"/>
<path d="M137.89 166.571C134.03 166.571 134.52 168.348 134.52 171.989C134.52 175.725 137.89 177.148 137.89 172.892C137.89 168.709 141.079 170.883 143.695 170.083C145.836 169.427 143.143 166.919 142.104 166.672C140.778 166.356 139.241 166.571 137.89 166.571Z" stroke="#1E1E1E" stroke-width="5" stroke-linecap="round" stroke-linejoin="round"/>
<path d="M136.5 172.499C124.038 172.499 112.48 171.03 100.287 168.372C91.6972 166.5 83.7389 162.426 75.4998 159.5" stroke="#1E1E1E" stroke-width="5" stroke-linecap="round" stroke-linejoin="round"/>
<path d="M138.5 170.499C137.744 166.735 133.464 164.579 130.527 162.657C123.027 157.748 115.149 153.347 108.847 146.874C99.3555 137.126 91.6962 126.077 80.7497 117.827C78.3671 116.031 76.03 113.636 72.972 113.082C71.2725 112.774 69.38 113.36 67.722 112.889C65.7632 112.331 63.3735 110.433 61.4998 109.5" stroke="#1E1E1E" stroke-width="5" stroke-linecap="round" stroke-linejoin="round"/>
<path d="M61.6779 109.5C61.6779 113.352 61.6779 117.205 61.6779 121.057C61.6779 125.667 61.6779 117.865 61.6779 116.612C61.6779 113.698 60.4765 109.5 64.3148 109.5C68.7098 109.5 73.1048 109.5 77.4998 109.5" stroke="#1E1E1E" stroke-width="5" stroke-linecap="round" stroke-linejoin="round"/>
<path d="M75.4998 159.5H75.4999" stroke="#1E1E1E" stroke-width="5" stroke-linecap="round" stroke-linejoin="round"/>
<path d="M75.4998 161.879C75.4998 165.353 77.2498 167.139 77.2498 170.328C77.2498 176.064 77.2498 168.835 77.2498 166.948C77.2498 163.277 76.1154 160.189 80.7497 160.189C84.052 160.189 85.9016 158.5 89.4997 158.5" stroke="#1E1E1E" stroke-width="5" stroke-linecap="round" stroke-linejoin="round"/>
</svg>
