<svg width="83" height="75" viewBox="0 0 83 75" fill="none" xmlns="http://www.w3.org/2000/svg">
<path d="M50.2392 0.423414C49.5412 0.080797 48.7614 -0.0582136 47.9886 0.0222009C47.2158 0.102615 46.481 0.399226 45.8679 0.878277L22.0918 19.4443H6.91667C5.08225 19.4443 3.32297 20.176 2.02584 21.4783C0.728718 22.7806 0 24.547 0 26.3888V48.6111C0 50.4529 0.728718 52.2192 2.02584 53.5215C3.32297 54.8239 5.08225 55.5555 6.91667 55.5555H22.0918L45.8679 74.1216C46.4811 74.6007 47.2159 74.8973 47.9887 74.9778C48.7616 75.0582 49.5414 74.9192 50.2394 74.5766C50.9374 74.2339 51.5257 73.7014 51.9371 73.0397C52.3485 72.3779 52.5667 71.6135 52.5667 70.8334V4.16648C52.5666 3.38637 52.3484 2.62195 51.937 1.96022C51.5255 1.29848 50.9372 0.766011 50.2392 0.423414ZM8.3 27.7777H19.3667V47.2222H8.3V27.7777ZM44.2667 62.3125L27.6667 49.3507V25.6492L44.2667 12.6873V62.3125ZM69.1667 37.4999C69.1672 41.2219 67.8145 44.8161 65.3625 47.6076C65.0019 48.018 64.5643 48.353 64.0748 48.5936C63.5852 48.8342 63.0532 48.9756 62.5092 49.0098C61.9652 49.044 61.4198 48.9703 60.9042 48.7928C60.3886 48.6154 59.9128 48.3377 59.5041 47.9756C59.0953 47.6136 58.7616 47.1743 58.522 46.6827C58.2824 46.1912 58.1415 45.6571 58.1075 45.1109C58.0734 44.5647 58.1469 44.0171 58.3236 43.4994C58.5003 42.9817 58.7769 42.5041 59.1375 42.0937C60.2492 40.8257 60.8625 39.1944 60.8625 37.5051C60.8625 35.8159 60.2492 34.1845 59.1375 32.9166C58.4465 32.0828 58.1066 31.0113 58.1899 29.9299C58.2733 28.8485 58.7734 27.8423 59.584 27.1252C60.3946 26.4081 61.4517 26.0367 62.5307 26.0898C63.6098 26.1429 64.6257 26.6164 65.3625 27.4096C67.8122 30.1956 69.1649 33.7836 69.1667 37.4999ZM83 37.4999C83.0042 44.6751 80.37 51.5992 75.6026 56.9444C74.8689 57.7682 73.8392 58.2655 72.7402 58.327C71.6412 58.3886 70.5629 58.0093 69.7425 57.2726C68.922 56.5358 68.4267 55.5021 68.3654 54.3987C68.3041 53.2952 68.6819 52.2126 69.4157 51.3889C72.8184 47.5692 74.6995 42.6245 74.6995 37.4999C74.6995 32.3754 72.8184 27.4306 69.4157 23.611C69.0375 23.2059 68.7438 22.7289 68.5518 22.2082C68.3598 21.6875 68.2734 21.1335 68.2977 20.5788C68.3219 20.024 68.4564 19.4798 68.6932 18.978C68.9299 18.4762 69.2641 18.0269 69.6763 17.6567C70.0884 17.2864 70.57 17.0026 71.093 16.8219C71.6159 16.6411 72.1695 16.5672 72.7213 16.6043C73.2731 16.6415 73.8119 16.789 74.3061 17.0382C74.8003 17.2874 75.24 17.6332 75.5992 18.0554C80.3678 23.4001 83.0033 30.3243 83 37.4999Z" fill="black"/>
</svg>
