<svg width="27" height="27" viewBox="0 0 27 27" fill="none" xmlns="http://www.w3.org/2000/svg">
<path fill-rule="evenodd" clip-rule="evenodd" d="M24.6843 1.28219C23.863 0.461205 22.7494 0 21.5881 0C20.4269 0 19.3132 0.461205 18.492 1.28219L17.4599 2.3157L24.6857 9.54151L25.7163 8.50946C26.1231 8.1028 26.4457 7.62 26.6658 7.08863C26.886 6.55726 26.9993 5.98774 26.9993 5.41258C26.9993 4.83742 26.886 4.2679 26.6658 3.73653C26.4457 3.20517 26.1231 2.72237 25.7163 2.3157L24.6843 1.28219ZM22.6202 11.6056L15.3944 4.3798L2.12517 17.6505C1.8348 17.9409 1.63195 18.3071 1.5398 18.7073L0.0377118 25.2106C-0.0182568 25.452 -0.0118369 25.7037 0.0563664 25.942C0.12457 26.1802 0.252311 26.3972 0.427554 26.5724C0.602796 26.7477 0.81977 26.8754 1.05803 26.9436C1.29629 27.0118 1.54799 27.0182 1.78942 26.9623L8.29411 25.4616C8.6938 25.3692 9.05949 25.1664 9.34951 24.8763L22.6202 11.6056Z" fill="black"/>
</svg>
