<svg width="32" height="32" viewBox="0 0 32 32" fill="none" xmlns="http://www.w3.org/2000/svg">
<g clip-path="url(#clip0_67_721)">
<path d="M31.1214 17.1213C32.2929 15.9498 32.2929 14.0503 31.1214 12.8787L21.1214 2.8787C19.9498 1.70713 18.0504 1.70707 16.8787 2.8787L0.878672 18.8787C-0.292891 20.0503 -0.292891 21.9498 0.878672 23.1213L6.87867 29.1213C7.44131 29.6839 8.20438 30 9.00005 30H31.25C31.6642 30 32 29.6642 32 29.25V26.75C32 26.3358 31.6642 26 31.25 26H22.2427L31.1214 17.1213ZM12.2072 13.2071L20.793 21.7929L16.5859 26H9.4143L4.4143 21L12.2072 13.2071Z" fill="black"/>
</g>
<defs>
<clipPath id="clip0_67_721">
<rect width="32" height="32" fill="white"/>
</clipPath>
</defs>
</svg>
