<svg width="40" height="48" viewBox="0 0 40 48" fill="none" xmlns="http://www.w3.org/2000/svg">
<path d="M32.6418 25.5008C32.7093 32.765 39.0143 35.1822 39.0841 35.2131C39.0307 35.3835 38.0766 38.6578 35.7624 42.04C33.7618 44.9641 31.6853 47.8774 28.4143 47.9377C25.2006 47.9969 24.167 46.0319 20.4925 46.0319C16.819 46.0319 15.6708 47.8774 12.6283 47.9969C9.47106 48.1165 7.06678 44.8351 5.04967 41.9216C0.927524 35.9624 -2.22256 25.0819 2.00722 17.7375C4.10845 14.0901 7.86373 11.7806 11.9395 11.7214C15.0398 11.6623 17.9662 13.8072 19.8615 13.8072C21.7555 13.8072 25.3117 11.2278 29.0502 11.6066C30.6151 11.6718 35.0084 12.2387 37.8293 16.3678C37.6018 16.5087 32.5873 19.4278 32.6418 25.5008ZM26.6016 7.66399C28.278 5.63498 29.4061 2.81054 29.0983 0C26.6821 0.0970995 23.7606 1.61008 22.0274 3.63787C20.4743 5.43375 19.1141 8.30796 19.4812 11.0628C22.1743 11.2712 24.9253 9.69422 26.6016 7.66399Z" fill="black"/>
</svg>
