<svg width="16" height="22" viewBox="0 0 16 22" fill="none" xmlns="http://www.w3.org/2000/svg">
<path d="M7.81002 9.93146C7.70678 9.92114 7.58289 9.92114 7.46933 9.93146C5.01228 9.84887 3.06109 7.83574 3.06109 5.35803C3.06109 2.82871 5.10519 0.774282 7.64484 0.774282C10.1742 0.774282 12.2286 2.82871 12.2286 5.35803C12.2183 7.83574 10.2671 9.84887 7.81002 9.93146Z" stroke="#76A2DF" stroke-width="1.5" stroke-linecap="round" stroke-linejoin="round"/>
<path d="M2.64805 13.7409C0.149695 15.4134 0.149695 18.1389 2.64805 19.801C5.48708 21.7006 10.1431 21.7006 12.9821 19.801C15.4805 18.1285 15.4805 15.4031 12.9821 13.7409C10.1534 11.8517 5.4974 11.8517 2.64805 13.7409Z" stroke="#76A2DF" stroke-width="1.5" stroke-linecap="round" stroke-linejoin="round"/>
</svg>
